<svg xmlns="http://www.w3.org/2000/svg" width="100" height="100" viewBox="0 0 100 100"><g transform="translate(-713 -334)"><rect width="100" height="100" transform="translate(713 334)" fill="none"/><path d="M86.353.824H14.5A14.075,14.075,0,0,0,.428,14.9v71.85A14.075,14.075,0,0,0,14.5,100.824H47.2v-36.5H34.841V50.086H47.2V39.6q0-8.916,4.931-13.844t13.375-4.938c5.638,0,9.288.219,10.956.631V34.124H68.953q-4.069,0-5.556,1.725a7.734,7.734,0,0,0-1.481,5.163v9.075H76L74.122,64.324H61.916v36.5H86.353a14.075,14.075,0,0,0,14.075-14.075V14.9A14.075,14.075,0,0,0,86.353.824Z" transform="translate(712.572 333.176)" fill="#fff"/></g></svg>