<svg xmlns="http://www.w3.org/2000/svg" width="100" height="100" viewBox="0 0 100 100"><g transform="translate(-271 -334)"><rect width="100" height="100" transform="translate(271 334)" fill="none"/><g transform="translate(267.6 329.2)"><path d="M41.206,16.7A25.806,25.806,0,1,0,67.013,42.506,25.856,25.856,0,0,0,41.206,16.7Zm0,42.339A16.532,16.532,0,1,1,57.739,42.506,16.607,16.607,0,0,1,41.206,59.039Z" transform="translate(12.194 12.092)" fill="#fff"/><circle cx="5.847" cy="5.847" r="5.847" transform="translate(74.368 22.34)" fill="#fff"/><path d="M95.335,13.066C90.094,7.623,82.634,4.8,74.166,4.8H32.634C15.094,4.8,3.4,16.494,3.4,34.034V75.365c0,8.669,2.823,16.129,8.468,21.573,5.444,5.242,12.7,7.863,20.968,7.863H73.965c8.669,0,15.927-2.823,21.169-7.863,5.444-5.242,8.266-12.7,8.266-21.371V34.034C103.4,25.566,100.577,18.308,95.335,13.066Zm-.806,62.5c0,6.25-2.218,11.29-5.847,14.718s-8.669,5.242-14.718,5.242H32.835c-6.048,0-11.089-1.815-14.718-5.242-3.629-3.629-5.444-8.669-5.444-14.919V34.034c0-6.048,1.815-11.089,5.444-14.718,3.427-3.427,8.669-5.242,14.718-5.242H74.368c6.048,0,11.089,1.815,14.718,5.444a20.8,20.8,0,0,1,5.444,14.516V75.566Z" transform="translate(0 0)" fill="#fff"/></g></g></svg>