<svg xmlns="http://www.w3.org/2000/svg" width="100" height="100" viewBox="0 0 100 100"><g transform="translate(-564 -334)"><rect width="100" height="100" transform="translate(564 334)" fill="none"/><path d="M80.687,39.285a2.627,2.627,0,0,1,0,5.254H73.375v4.688h7.312a2.623,2.623,0,1,1,0,5.246H70.746a2.629,2.629,0,0,1-2.613-2.621V31.972a2.633,2.633,0,0,1,2.625-2.625H80.7a2.625,2.625,0,0,1-.012,5.25H73.375v4.688ZM64.625,51.851a2.622,2.622,0,0,1-1.8,2.483,2.692,2.692,0,0,1-.829.129,2.576,2.576,0,0,1-2.125-1.042L49.692,39.6v12.25a2.619,2.619,0,1,1-5.237,0V31.972a2.611,2.611,0,0,1,1.792-2.479,2.424,2.424,0,0,1,.808-.137,2.7,2.7,0,0,1,2.063,1.058L59.375,44.289V31.972a2.625,2.625,0,1,1,5.25,0Zm-23.921,0a2.621,2.621,0,1,1-5.242,0V31.972a2.621,2.621,0,1,1,5.242,0V51.851ZM30.429,54.472H20.487a2.64,2.64,0,0,1-2.625-2.621V31.972a2.625,2.625,0,1,1,5.25,0V49.226h7.317a2.623,2.623,0,0,1,0,5.246M100,41.164C100,18.785,77.562.572,50,.572S0,18.785,0,41.164C0,61.209,17.792,78.005,41.812,81.2c1.629.342,3.846,1.075,4.408,2.458a10.178,10.178,0,0,1,.158,4.5l-.683,4.25c-.187,1.254-1,4.942,4.371,2.688S78.883,78.1,89.383,66.03C96.567,58.159,100,50.1,100,41.164" transform="translate(564 335.428)"/></g></svg>