<?xml version="1.0" encoding="utf-8"?>
<!-- Generator: Adobe Illustrator 24.1.1, SVG Export Plug-In . SVG Version: 6.00 Build 0)  -->
<svg version="1.1" id="Layer_1" xmlns="http://www.w3.org/2000/svg" xmlns:xlink="http://www.w3.org/1999/xlink" x="0px" y="0px"
	 viewBox="0 0 512 512" style="enable-background:new 0 0 512 512;" xml:space="preserve">
<g>
	<path  fill="white" d="M307.2,76.8V128c0,14.1,11.5,25.6,25.6,25.6s25.6-11.5,25.6-25.6V76.8c0-14.1-11.5-25.6-25.6-25.6S307.2,62.7,307.2,76.8"
		/>
	<path  fill="white" d="M307.2,230.4v51.2c0,14.1,11.5,25.6,25.6,25.6s25.6-11.5,25.6-25.6v-51.2c0-14.1-11.5-25.6-25.6-25.6
		S307.2,216.3,307.2,230.4"/>
	<path  fill="white" d="M307.2,384v51.2c0,14.1,11.5,25.6,25.6,25.6s25.6-11.5,25.6-25.6V384c0-14.1-11.5-25.6-25.6-25.6S307.2,369.9,307.2,384"/>
	<path  fill="white" d="M76.8,102.4h358.4c14.1,0,25.6,11.5,25.6,25.6v76.8h25.6v-25.6c-42.4,0-76.8,34.4-76.8,76.8c0,42.4,34.4,76.8,76.8,76.8
		v-25.6h-25.6V384c0,14.1-11.5,25.6-25.6,25.6H76.8c-14.1,0-25.6-11.5-25.6-25.6v-76.8H25.6v25.6c42.4,0,76.8-34.4,76.8-76.8
		c0-42.4-34.4-76.8-76.8-76.8v25.6h25.6V128C51.2,113.9,62.7,102.4,76.8,102.4c14.1,0,25.6-11.5,25.6-25.6
		c0-14.1-11.5-25.6-25.6-25.6C34.4,51.2,0,85.6,0,128v76.8c0,6.7,2.7,13.3,7.5,18.1c4.8,4.8,11.4,7.5,18.1,7.5
		c14.1,0,25.6,11.5,25.6,25.6c0,14.1-11.5,25.6-25.6,25.6c-6.7,0-13.3,2.7-18.1,7.5C2.7,293.9,0,300.5,0,307.2V384
		c0,42.4,34.4,76.8,76.8,76.8h358.4c42.4,0,76.8-34.4,76.8-76.8v-76.8c0-6.7-2.7-13.3-7.5-18.1s-11.4-7.5-18.1-7.5
		c-14.1,0-25.6-11.5-25.6-25.6c0-14.1,11.5-25.6,25.6-25.6c6.7,0,13.3-2.7,18.1-7.5c4.8-4.8,7.5-11.4,7.5-18.1V128
		c0-42.4-34.4-76.8-76.8-76.8H76.8c-14.1,0-25.6,11.5-25.6,25.6C51.2,90.9,62.7,102.4,76.8,102.4L76.8,102.4z"/>
</g>
</svg>
